<mxfile host="app.diagrams.net" modified="2024-06-05T05:12:37.215Z" agent="Mozilla/5.0 (Windows NT 10.0; Win64; x64) AppleWebKit/537.36 (KHTML, like Gecko) Chrome/123.0.0.0 Safari/537.36 OPR/109.0.0.0" etag="QbpuBU9YkrNmGp6qBvFU" version="24.4.13" type="device">
  <diagram name="Page-1" id="Ifwqp3n1UaSXSHgseho7">
    <mxGraphModel dx="911" dy="1909" grid="1" gridSize="10" guides="1" tooltips="1" connect="0" arrows="1" fold="1" page="1" pageScale="1" pageWidth="827" pageHeight="1169" background="none" math="0" shadow="0">
      <root>
        <mxCell id="0" />
        <mxCell id="1" parent="0" />
        <mxCell id="7vTjTDmtVt0uSgRobRRC-6" value="Agencia" style="swimlane;fontStyle=2;align=center;verticalAlign=top;childLayout=stackLayout;horizontal=1;startSize=26;horizontalStack=0;resizeParent=1;resizeLast=0;collapsible=1;marginBottom=0;rounded=0;shadow=0;strokeWidth=1;" vertex="1" parent="1">
          <mxGeometry x="140" y="-106" width="210" height="140" as="geometry">
            <mxRectangle x="230" y="140" width="160" height="26" as="alternateBounds" />
          </mxGeometry>
        </mxCell>
        <mxCell id="7vTjTDmtVt0uSgRobRRC-7" value="nombre: String" style="text;align=left;verticalAlign=top;spacingLeft=4;spacingRight=4;overflow=hidden;rotatable=0;points=[[0,0.5],[1,0.5]];portConstraint=eastwest;" vertex="1" parent="7vTjTDmtVt0uSgRobRRC-6">
          <mxGeometry y="26" width="210" height="26" as="geometry" />
        </mxCell>
        <mxCell id="7vTjTDmtVt0uSgRobRRC-8" value="direccion:String" style="text;align=left;verticalAlign=top;spacingLeft=4;spacingRight=4;overflow=hidden;rotatable=0;points=[[0,0.5],[1,0.5]];portConstraint=eastwest;rounded=0;shadow=0;html=0;" vertex="1" parent="7vTjTDmtVt0uSgRobRRC-6">
          <mxGeometry y="52" width="210" height="26" as="geometry" />
        </mxCell>
        <mxCell id="7vTjTDmtVt0uSgRobRRC-10" value="telefono:String" style="text;align=left;verticalAlign=top;spacingLeft=4;spacingRight=4;overflow=hidden;rotatable=0;points=[[0,0.5],[1,0.5]];portConstraint=eastwest;" vertex="1" parent="7vTjTDmtVt0uSgRobRRC-6">
          <mxGeometry y="78" width="210" height="26" as="geometry" />
        </mxCell>
        <mxCell id="7vTjTDmtVt0uSgRobRRC-11" value="" style="line;html=1;strokeWidth=1;align=left;verticalAlign=middle;spacingTop=-1;spacingLeft=3;spacingRight=3;rotatable=0;labelPosition=right;points=[];portConstraint=eastwest;" vertex="1" parent="7vTjTDmtVt0uSgRobRRC-6">
          <mxGeometry y="104" width="210" height="8" as="geometry" />
        </mxCell>
        <mxCell id="7vTjTDmtVt0uSgRobRRC-12" value="getDetallesAgencia(): String" style="text;align=left;verticalAlign=top;spacingLeft=4;spacingRight=4;overflow=hidden;rotatable=0;points=[[0,0.5],[1,0.5]];portConstraint=eastwest;" vertex="1" parent="7vTjTDmtVt0uSgRobRRC-6">
          <mxGeometry y="112" width="210" height="26" as="geometry" />
        </mxCell>
        <mxCell id="7vTjTDmtVt0uSgRobRRC-16" value="Cliente" style="swimlane;fontStyle=0;align=center;verticalAlign=top;childLayout=stackLayout;horizontal=1;startSize=26;horizontalStack=0;resizeParent=1;resizeLast=0;collapsible=1;marginBottom=0;rounded=0;shadow=0;strokeWidth=1;" vertex="1" parent="1">
          <mxGeometry x="817" y="-140" width="160" height="220" as="geometry">
            <mxRectangle x="130" y="380" width="160" height="26" as="alternateBounds" />
          </mxGeometry>
        </mxCell>
        <mxCell id="7vTjTDmtVt0uSgRobRRC-17" value="codigo: int" style="text;align=left;verticalAlign=top;spacingLeft=4;spacingRight=4;overflow=hidden;rotatable=0;points=[[0,0.5],[1,0.5]];portConstraint=eastwest;" vertex="1" parent="7vTjTDmtVt0uSgRobRRC-16">
          <mxGeometry y="26" width="160" height="26" as="geometry" />
        </mxCell>
        <mxCell id="7vTjTDmtVt0uSgRobRRC-18" value="dni: String" style="text;align=left;verticalAlign=top;spacingLeft=4;spacingRight=4;overflow=hidden;rotatable=0;points=[[0,0.5],[1,0.5]];portConstraint=eastwest;rounded=0;shadow=0;html=0;" vertex="1" parent="7vTjTDmtVt0uSgRobRRC-16">
          <mxGeometry y="52" width="160" height="26" as="geometry" />
        </mxCell>
        <mxCell id="7vTjTDmtVt0uSgRobRRC-19" value="nombre: String" style="text;align=left;verticalAlign=top;spacingLeft=4;spacingRight=4;overflow=hidden;rotatable=0;points=[[0,0.5],[1,0.5]];portConstraint=eastwest;rounded=0;shadow=0;html=0;" vertex="1" parent="7vTjTDmtVt0uSgRobRRC-16">
          <mxGeometry y="78" width="160" height="26" as="geometry" />
        </mxCell>
        <mxCell id="7vTjTDmtVt0uSgRobRRC-20" value="direccion: String" style="text;align=left;verticalAlign=top;spacingLeft=4;spacingRight=4;overflow=hidden;rotatable=0;points=[[0,0.5],[1,0.5]];portConstraint=eastwest;" vertex="1" parent="7vTjTDmtVt0uSgRobRRC-16">
          <mxGeometry y="104" width="160" height="26" as="geometry" />
        </mxCell>
        <mxCell id="7vTjTDmtVt0uSgRobRRC-51" value="telefono: String" style="text;align=left;verticalAlign=top;spacingLeft=4;spacingRight=4;overflow=hidden;rotatable=0;points=[[0,0.5],[1,0.5]];portConstraint=eastwest;" vertex="1" parent="7vTjTDmtVt0uSgRobRRC-16">
          <mxGeometry y="130" width="160" height="26" as="geometry" />
        </mxCell>
        <mxCell id="7vTjTDmtVt0uSgRobRRC-52" value="clienteAval: cliente" style="text;align=left;verticalAlign=top;spacingLeft=4;spacingRight=4;overflow=hidden;rotatable=0;points=[[0,0.5],[1,0.5]];portConstraint=eastwest;" vertex="1" parent="7vTjTDmtVt0uSgRobRRC-16">
          <mxGeometry y="156" width="160" height="26" as="geometry" />
        </mxCell>
        <mxCell id="7vTjTDmtVt0uSgRobRRC-21" value="" style="line;html=1;strokeWidth=1;align=left;verticalAlign=middle;spacingTop=-1;spacingLeft=3;spacingRight=3;rotatable=0;labelPosition=right;points=[];portConstraint=eastwest;" vertex="1" parent="7vTjTDmtVt0uSgRobRRC-16">
          <mxGeometry y="182" width="160" height="8" as="geometry" />
        </mxCell>
        <mxCell id="7vTjTDmtVt0uSgRobRRC-53" value="getDetallesCliente():String" style="text;html=1;align=center;verticalAlign=middle;resizable=0;points=[];autosize=1;strokeColor=none;fillColor=none;" vertex="1" parent="7vTjTDmtVt0uSgRobRRC-16">
          <mxGeometry y="190" width="160" height="30" as="geometry" />
        </mxCell>
        <mxCell id="7vTjTDmtVt0uSgRobRRC-26" value="Reserva" style="swimlane;fontStyle=0;align=center;verticalAlign=top;childLayout=stackLayout;horizontal=1;startSize=26;horizontalStack=0;resizeParent=1;resizeLast=0;collapsible=1;marginBottom=0;rounded=0;shadow=0;strokeWidth=1;" vertex="1" parent="1">
          <mxGeometry x="550" y="210" width="165" height="276" as="geometry">
            <mxRectangle x="340" y="380" width="170" height="26" as="alternateBounds" />
          </mxGeometry>
        </mxCell>
        <mxCell id="7vTjTDmtVt0uSgRobRRC-27" value="cliente : ClienteÂ " style="text;align=left;verticalAlign=top;spacingLeft=4;spacingRight=4;overflow=hidden;rotatable=0;points=[[0,0.5],[1,0.5]];portConstraint=eastwest;" vertex="1" parent="7vTjTDmtVt0uSgRobRRC-26">
          <mxGeometry y="26" width="165" height="26" as="geometry" />
        </mxCell>
        <mxCell id="7vTjTDmtVt0uSgRobRRC-28" value="coches: List&lt;Coche&gt;" style="text;align=left;verticalAlign=top;spacingLeft=4;spacingRight=4;overflow=hidden;rotatable=0;points=[[0,0.5],[1,0.5]];portConstraint=eastwest;" vertex="1" parent="7vTjTDmtVt0uSgRobRRC-26">
          <mxGeometry y="52" width="165" height="26" as="geometry" />
        </mxCell>
        <mxCell id="7vTjTDmtVt0uSgRobRRC-29" value="fechaInicio: Date" style="text;align=left;verticalAlign=top;spacingLeft=4;spacingRight=4;overflow=hidden;rotatable=0;points=[[0,0.5],[1,0.5]];portConstraint=eastwest;" vertex="1" parent="7vTjTDmtVt0uSgRobRRC-26">
          <mxGeometry y="78" width="165" height="26" as="geometry" />
        </mxCell>
        <mxCell id="7vTjTDmtVt0uSgRobRRC-30" value="fechaFin: Date" style="text;align=left;verticalAlign=top;spacingLeft=4;spacingRight=4;overflow=hidden;rotatable=0;points=[[0,0.5],[1,0.5]];portConstraint=eastwest;" vertex="1" parent="7vTjTDmtVt0uSgRobRRC-26">
          <mxGeometry y="104" width="165" height="26" as="geometry" />
        </mxCell>
        <mxCell id="7vTjTDmtVt0uSgRobRRC-31" value="fechaFin: Date" style="text;align=left;verticalAlign=top;spacingLeft=4;spacingRight=4;overflow=hidden;rotatable=0;points=[[0,0.5],[1,0.5]];portConstraint=eastwest;" vertex="1" parent="7vTjTDmtVt0uSgRobRRC-26">
          <mxGeometry y="130" width="165" height="26" as="geometry" />
        </mxCell>
        <mxCell id="7vTjTDmtVt0uSgRobRRC-32" value="precioTotal: double" style="text;align=left;verticalAlign=top;spacingLeft=4;spacingRight=4;overflow=hidden;rotatable=0;points=[[0,0.5],[1,0.5]];portConstraint=eastwest;" vertex="1" parent="7vTjTDmtVt0uSgRobRRC-26">
          <mxGeometry y="156" width="165" height="26" as="geometry" />
        </mxCell>
        <mxCell id="7vTjTDmtVt0uSgRobRRC-67" value="entregado: boolean" style="text;align=left;verticalAlign=top;spacingLeft=4;spacingRight=4;overflow=hidden;rotatable=0;points=[[0,0.5],[1,0.5]];portConstraint=eastwest;" vertex="1" parent="7vTjTDmtVt0uSgRobRRC-26">
          <mxGeometry y="182" width="165" height="26" as="geometry" />
        </mxCell>
        <mxCell id="7vTjTDmtVt0uSgRobRRC-33" value="" style="line;html=1;strokeWidth=1;align=left;verticalAlign=middle;spacingTop=-1;spacingLeft=3;spacingRight=3;rotatable=0;labelPosition=right;points=[];portConstraint=eastwest;" vertex="1" parent="7vTjTDmtVt0uSgRobRRC-26">
          <mxGeometry y="208" width="165" height="8" as="geometry" />
        </mxCell>
        <mxCell id="7vTjTDmtVt0uSgRobRRC-56" value="calcularPrecioTotal(): double" style="text;html=1;align=center;verticalAlign=middle;resizable=0;points=[];autosize=1;strokeColor=none;fillColor=none;" vertex="1" parent="7vTjTDmtVt0uSgRobRRC-26">
          <mxGeometry y="216" width="165" height="30" as="geometry" />
        </mxCell>
        <mxCell id="7vTjTDmtVt0uSgRobRRC-66" value="getDetallesReserva(): String" style="text;html=1;align=center;verticalAlign=middle;resizable=0;points=[];autosize=1;strokeColor=none;fillColor=none;" vertex="1" parent="7vTjTDmtVt0uSgRobRRC-26">
          <mxGeometry y="246" width="165" height="30" as="geometry" />
        </mxCell>
        <mxCell id="7vTjTDmtVt0uSgRobRRC-35" value="Coche" style="swimlane;fontStyle=0;align=center;verticalAlign=top;childLayout=stackLayout;horizontal=1;startSize=26;horizontalStack=0;resizeParent=1;resizeLast=0;collapsible=1;marginBottom=0;rounded=0;shadow=0;strokeWidth=1;" vertex="1" parent="1">
          <mxGeometry x="480" y="-124" width="180" height="194" as="geometry">
            <mxRectangle x="550" y="140" width="160" height="26" as="alternateBounds" />
          </mxGeometry>
        </mxCell>
        <mxCell id="7vTjTDmtVt0uSgRobRRC-36" value="matricula: String" style="text;align=left;verticalAlign=top;spacingLeft=4;spacingRight=4;overflow=hidden;rotatable=0;points=[[0,0.5],[1,0.5]];portConstraint=eastwest;" vertex="1" parent="7vTjTDmtVt0uSgRobRRC-35">
          <mxGeometry y="26" width="180" height="26" as="geometry" />
        </mxCell>
        <mxCell id="7vTjTDmtVt0uSgRobRRC-37" value="modelo: String" style="text;align=left;verticalAlign=top;spacingLeft=4;spacingRight=4;overflow=hidden;rotatable=0;points=[[0,0.5],[1,0.5]];portConstraint=eastwest;rounded=0;shadow=0;html=0;" vertex="1" parent="7vTjTDmtVt0uSgRobRRC-35">
          <mxGeometry y="52" width="180" height="26" as="geometry" />
        </mxCell>
        <mxCell id="7vTjTDmtVt0uSgRobRRC-38" value="color: String" style="text;align=left;verticalAlign=top;spacingLeft=4;spacingRight=4;overflow=hidden;rotatable=0;points=[[0,0.5],[1,0.5]];portConstraint=eastwest;rounded=0;shadow=0;html=0;" vertex="1" parent="7vTjTDmtVt0uSgRobRRC-35">
          <mxGeometry y="78" width="180" height="26" as="geometry" />
        </mxCell>
        <mxCell id="7vTjTDmtVt0uSgRobRRC-39" value="marca: String" style="text;align=left;verticalAlign=top;spacingLeft=4;spacingRight=4;overflow=hidden;rotatable=0;points=[[0,0.5],[1,0.5]];portConstraint=eastwest;rounded=0;shadow=0;html=0;" vertex="1" parent="7vTjTDmtVt0uSgRobRRC-35">
          <mxGeometry y="104" width="180" height="26" as="geometry" />
        </mxCell>
        <mxCell id="7vTjTDmtVt0uSgRobRRC-40" value="garaje: String" style="text;align=left;verticalAlign=top;spacingLeft=4;spacingRight=4;overflow=hidden;rotatable=0;points=[[0,0.5],[1,0.5]];portConstraint=eastwest;rounded=0;shadow=0;html=0;" vertex="1" parent="7vTjTDmtVt0uSgRobRRC-35">
          <mxGeometry y="130" width="180" height="26" as="geometry" />
        </mxCell>
        <mxCell id="7vTjTDmtVt0uSgRobRRC-41" value="" style="line;html=1;strokeWidth=1;align=left;verticalAlign=middle;spacingTop=-1;spacingLeft=3;spacingRight=3;rotatable=0;labelPosition=right;points=[];portConstraint=eastwest;" vertex="1" parent="7vTjTDmtVt0uSgRobRRC-35">
          <mxGeometry y="156" width="180" height="8" as="geometry" />
        </mxCell>
        <mxCell id="7vTjTDmtVt0uSgRobRRC-50" value="getDetallesCoche():String" style="text;html=1;align=center;verticalAlign=middle;resizable=0;points=[];autosize=1;strokeColor=none;fillColor=none;" vertex="1" parent="7vTjTDmtVt0uSgRobRRC-35">
          <mxGeometry y="164" width="180" height="30" as="geometry" />
        </mxCell>
        <mxCell id="7vTjTDmtVt0uSgRobRRC-42" value="" style="endArrow=diamondThin;endFill=1;endSize=24;html=1;rounded=0;entryX=0.5;entryY=1;entryDx=0;entryDy=0;exitX=0.5;exitY=0;exitDx=0;exitDy=0;" edge="1" parent="1" source="7vTjTDmtVt0uSgRobRRC-26" target="7vTjTDmtVt0uSgRobRRC-35">
          <mxGeometry width="160" relative="1" as="geometry">
            <mxPoint x="-120" y="264" as="sourcePoint" />
            <mxPoint x="670" y="110" as="targetPoint" />
          </mxGeometry>
        </mxCell>
        <mxCell id="7vTjTDmtVt0uSgRobRRC-43" value="" style="line;strokeWidth=1;fillColor=none;align=left;verticalAlign=middle;spacingTop=-1;spacingLeft=3;spacingRight=3;rotatable=0;labelPosition=right;points=[];portConstraint=eastwest;strokeColor=inherit;" vertex="1" parent="1">
          <mxGeometry x="350" y="-40" width="130" height="8" as="geometry" />
        </mxCell>
        <mxCell id="7vTjTDmtVt0uSgRobRRC-45" value="" style="endArrow=diamondThin;endFill=1;endSize=24;html=1;rounded=0;entryX=0;entryY=0.5;entryDx=0;entryDy=0;exitX=1;exitY=0.5;exitDx=0;exitDy=0;" edge="1" parent="1" source="7vTjTDmtVt0uSgRobRRC-30">
          <mxGeometry width="160" relative="1" as="geometry">
            <mxPoint x="430" y="190" as="sourcePoint" />
            <mxPoint x="817" y="89" as="targetPoint" />
          </mxGeometry>
        </mxCell>
        <mxCell id="7vTjTDmtVt0uSgRobRRC-46" value="" style="line;strokeWidth=1;fillColor=none;align=left;verticalAlign=middle;spacingTop=-1;spacingLeft=3;spacingRight=3;rotatable=0;labelPosition=right;points=[];portConstraint=eastwest;strokeColor=inherit;" vertex="1" parent="1">
          <mxGeometry x="660" y="-40" width="160" height="8" as="geometry" />
        </mxCell>
        <mxCell id="7vTjTDmtVt0uSgRobRRC-54" value="" style="endArrow=diamondThin;endFill=1;endSize=24;html=1;rounded=0;entryX=-0.024;entryY=0.079;entryDx=0;entryDy=0;exitX=0.809;exitY=1.145;exitDx=0;exitDy=0;entryPerimeter=0;exitPerimeter=0;" edge="1" parent="1" source="7vTjTDmtVt0uSgRobRRC-12" target="7vTjTDmtVt0uSgRobRRC-26">
          <mxGeometry width="160" relative="1" as="geometry">
            <mxPoint x="380" y="280" as="sourcePoint" />
            <mxPoint x="320" y="140" as="targetPoint" />
          </mxGeometry>
        </mxCell>
        <mxCell id="7vTjTDmtVt0uSgRobRRC-68" value="1" style="text;html=1;align=center;verticalAlign=middle;resizable=0;points=[];autosize=1;strokeColor=none;fillColor=none;" vertex="1" parent="1">
          <mxGeometry x="405" y="98" width="30" height="30" as="geometry" />
        </mxCell>
      </root>
    </mxGraphModel>
  </diagram>
</mxfile>
